<svg data-v-fde0c5aa="" xmlns="http://www.w3.org/2000/svg" viewBox="0 0 300 300" class="iconLeft"><!----><defs data-v-fde0c5aa=""><!----></defs><rect data-v-fde0c5aa="" fill="#1e2933" x="0" y="0" width="300px" height="300px" class="logo-background-square"></rect><defs data-v-fde0c5aa=""><!----></defs><g data-v-fde0c5aa="" id="710570a2-26ee-4d27-97be-9343147db1fc" fill="#FFFFFF" transform="matrix(1.5294813207814413,0,0,1.5294813207814413,88.8051562326056,137.1523573977225)"><path d="M0.11 3.36L2.86 3.36L2.86 12.60L5.49 12.60L5.49 3.36L8.23 3.36L8.23 1.05L0.11 1.05ZM15.36 9.35C15.37 9.27 15.37 9.11 15.37 9.02C15.37 6.50 13.71 5.21 11.52 5.21C9.35 5.21 7.57 6.92 7.57 9.02C7.57 11.10 9.35 12.81 11.52 12.81C13.12 12.81 14.43 12.29 15.25 10.93L13.45 10.04C12.85 10.68 12.50 10.84 11.70 10.84C11.07 10.84 10.15 10.46 10.15 9.35ZM10.22 7.98C10.26 7.32 10.74 6.82 11.59 6.82C12.32 6.82 12.84 7.22 12.95 7.98ZM20.36 7.24C21.10 7.24 21.56 7.57 21.56 7.57L22.40 5.88C22.40 5.88 21.59 5.21 19.99 5.21C17.91 5.21 16.02 6.92 16.02 9.03C16.02 11.13 17.92 12.81 19.99 12.81C21.59 12.81 22.40 12.17 22.40 12.17L21.56 10.44C21.56 10.44 21.10 10.78 20.36 10.78C19.42 10.78 18.65 10.00 18.65 9.00C18.65 8.02 19.42 7.24 20.36 7.24ZM23.41 12.60L25.89 12.60L25.89 8.54C25.89 7.83 26.61 7.14 27.36 7.14C28.15 7.14 28.64 7.83 28.64 8.54L28.64 12.60L31.12 12.60L31.12 7.87C31.12 5.87 29.29 5.21 27.97 5.21C27.19 5.21 26.47 5.61 25.91 6.17L25.89 6.17L25.89 0.56L23.41 0.56ZM42.18 10.22C39.54 10.22 38.37 8.37 38.37 6.82C38.37 5.28 39.54 3.43 42.18 3.43C43.53 3.43 44.45 4.14 44.45 4.14L45.57 1.90C45.57 1.90 44.28 0.84 41.78 0.84C38.50 0.84 35.52 3.53 35.52 6.85C35.52 10.15 38.51 12.81 41.78 12.81C44.28 12.81 45.57 11.75 45.57 11.75L44.45 9.51C44.45 9.51 43.53 10.22 42.18 10.22ZM46.06 9.02C46.06 11.23 47.80 12.81 50.39 12.81C52.86 12.81 54.67 11.23 54.67 9.02C54.67 6.78 52.77 5.21 50.39 5.21C47.96 5.21 46.06 6.78 46.06 9.02ZM48.69 9.02C48.69 8.02 49.43 7.32 50.37 7.32C51.30 7.32 52.04 8.02 52.04 9.02C52.04 10.00 51.34 10.70 50.37 10.70C49.36 10.70 48.69 10.00 48.69 9.02ZM55.80 12.60L58.28 12.60L58.28 8.40C58.28 7.83 58.60 7.20 59.43 7.20C60.31 7.20 60.69 7.83 60.69 8.54L60.69 12.60L63.17 12.60L63.17 8.32C63.20 7.77 63.53 7.20 64.32 7.20C65.20 7.20 65.58 7.83 65.58 8.54L65.58 12.60L68.05 12.60L68.05 7.87C68.05 5.87 66.57 5.21 65.25 5.21C64.47 5.21 63.63 5.61 62.87 6.52C62.37 5.56 61.32 5.21 60.37 5.21C59.58 5.21 58.87 5.61 58.31 6.17L58.28 6.17L58.28 5.42L55.80 5.42ZM77.99 9.00C77.99 6.90 76.52 5.21 74.42 5.21C73.44 5.21 72.60 5.64 72.07 6.23L72.04 6.23L72.04 5.42L69.59 5.42L69.59 16.24L72.07 16.24L72.07 11.91C72.66 12.49 73.46 12.81 74.42 12.81C76.52 12.81 77.99 11.10 77.99 9.00ZM75.36 9.00C75.36 10.00 74.62 10.70 73.68 10.70C72.76 10.70 72.02 10.00 72.02 9.00C72.02 8.02 72.72 7.32 73.68 7.32C74.69 7.32 75.36 8.02 75.36 9.00ZM78.64 9.02C78.64 11.12 80.11 12.81 82.21 12.81C83.19 12.81 84.03 12.38 84.56 11.79L84.59 11.79L84.59 12.60L87.04 12.60L87.04 5.42L84.56 5.42L84.56 6.10C83.97 5.53 83.17 5.21 82.21 5.21C80.11 5.21 78.64 6.92 78.64 9.02ZM81.27 9.02C81.27 8.02 82.01 7.32 82.95 7.32C83.87 7.32 84.62 8.02 84.62 9.02C84.62 10.00 83.92 10.70 82.95 10.70C81.94 10.70 81.27 10.00 81.27 9.02ZM88.72 12.60L91.20 12.60L91.20 8.82C91.20 8.64 91.38 7.36 92.67 7.36C93.49 7.36 93.95 7.76 93.95 7.76L94.99 5.66C94.99 5.66 94.35 5.21 93.42 5.21C92.01 5.21 91.22 6.45 91.22 6.45L91.20 6.45L91.20 5.42L88.72 5.42ZM102.87 9.35C102.89 9.27 102.89 9.11 102.89 9.02C102.89 6.50 101.22 5.21 99.04 5.21C96.87 5.21 95.09 6.92 95.09 9.02C95.09 11.10 96.87 12.81 99.04 12.81C100.63 12.81 101.95 12.29 102.76 10.93L100.97 10.04C100.37 10.68 100.02 10.84 99.22 10.84C98.59 10.84 97.66 10.46 97.66 9.35ZM97.73 7.98C97.78 7.32 98.25 6.82 99.11 6.82C99.83 6.82 100.35 7.22 100.46 7.98ZM103.53 9.02C103.53 11.12 105 12.81 107.10 12.81C108.08 12.81 108.92 12.38 109.45 11.79L109.48 11.79L109.48 12.60L111.93 12.60L111.93 0.56L109.45 0.56L109.45 6.10C108.86 5.53 108.07 5.21 107.10 5.21C105 5.21 103.53 6.92 103.53 9.02ZM106.16 9.02C106.16 8.02 106.90 7.32 107.84 7.32C108.77 7.32 109.51 8.02 109.51 9.02C109.51 10.00 108.81 10.70 107.84 10.70C106.83 10.70 106.16 10.00 106.16 9.02Z"></path></g><defs data-v-fde0c5aa=""><!----></defs><g data-v-fde0c5aa="" id="093401e8-bceb-4237-9372-e1aaf48a3878" stroke="none" fill="#ADEA18" transform="matrix(1.124168724280622,0,0,1.124168724280622,40,132.01330041151004)"><path d="M9.382 8.675h13.943v13.943L32 31.293V0H.707zM22.618 23.325H8.675V9.382L0 .707V32h31.293z"></path></g><!----></svg>